<svg height="512pt" viewBox="-15 0 511 512" width="512pt" style="fill: white;" xmlns="http://www.w3.org/2000/svg"><path d="m227.246094 396.140625-61-60-60 60-60-60-33.023438 33.035156c15.351563 49.652344 45.835938 102.699219 86.167969 142.824219h133.21875c9.929687-9.777344 20.5-21.890625 35.472656-42.703125-12.789062-22.824219-23.214843-52.332031-25.59375-88.398437zm-61.746094 31.070313-21.210938-21.210938 21.210938-21.210938 21.210938 21.210938zm0 0"/><path d="m250.773438 61 30-61h-229.546876l30 61zm0 0"/><path d="m.5 288.019531c0 16.359375 1.621094 32.078125 4.335938 47.121094l41.410156-41.421875 60 60 60-60 61 60 15.917968-15.917969c4.980469-45.550781 21.214844-70.039062 34.808594-90.121093 9.234375-13.609376 16.640625-24.902344 20.535156-45.136719-4.160156-3.445313-8.34375-6.628907-12.359374-9.515625-20.503907-14.703125-41.320313-30.863282-44.023438-102.027344h-152.25c-2.703125 71.164062-23.519531 87.324219-44.007812 102.027344-21.269532 15.246094-45.367188 32.546875-45.367188 94.992187zm226-23.230469 21.210938 21.210938-21.210938 21.210938-21.210938-21.210938zm-121 0 21.210938 21.210938-21.210938 21.210938-21.210938-21.210938zm0 0"/><path d="m430.773438 151 30-60h-168.546876l30 60zm0 0"/><path d="m422.109375 181h-91.21875c-2.34375 44.714844-14.769531 63.878906-28.070313 83.511719-15.398437 22.71875-31.320312 46.214843-31.320312 102.15625 0 62.925781 27.191406 105.167969 68.789062 145.332031h72.421876c42.222656-40.765625 68.789062-83.066406 68.789062-145.332031 0-56.144531-15.9375-79.597657-31.347656-102.273438-13.289063-19.550781-25.707032-38.65625-28.042969-83.394531zm0 0"/></svg>
